<?xml version="1.0" standalone="no"?>
<!DOCTYPE svg PUBLIC "-//W3C//DTD SVG 20010904//EN"
 "http://www.w3.org/TR/2001/REC-SVG-20010904/DTD/svg10.dtd">
<svg version="1.0" xmlns="http://www.w3.org/2000/svg"
 width="700.000000pt" height="700.000000pt" viewBox="0 0 700.000000 700.000000"
 preserveAspectRatio="xMidYMid meet">
<metadata>
Created by potrace 1.11, written by Peter Selinger 2001-2013
</metadata>
<g transform="translate(0.000000,700.000000) scale(0.100000,-0.100000)"
fill="#fff" stroke="none">
<path d="M0 3500 l0 -3500 3500 0 3500 0 0 3500 0 3500 -3500 0 -3500 0 0
-3500z m2935 767 c13 -21 15 -115 13 -783 l-3 -759 -242 -3 -243 -2 0 563 c0
556 0 565 -21 591 l-20 26 -274 0 -274 0 -20 -26 c-21 -26 -21 -35 -21 -590
l0 -564 -245 0 -245 0 0 767 c0 699 1 768 17 785 15 17 53 18 789 18 l774 0
15 -23z m1635 -187 l0 -200 -474 0 c-418 0 -476 -2 -490 -16 -12 -11 -16 -36
-16 -96 0 -128 -35 -118 417 -118 l383 0 0 -190 0 -190 -378 0 c-295 0 -382
-3 -396 -13 -16 -12 -18 -35 -17 -280 l2 -267 -251 0 -250 0 0 764 0 765 26
20 c26 21 34 21 735 21 l709 0 0 -200z m1104 172 c43 -12 99 -32 124 -44 59
-30 126 -99 158 -164 54 -110 56 -132 63 -538 l6 -379 85 -54 c47 -29 84 -59
82 -65 -2 -7 -44 -77 -94 -155 -102 -161 -80 -152 -197 -81 -35 22 -71 37 -80
35 -9 -3 -44 -17 -79 -32 -133 -55 -160 -58 -764 -62 l-558 -4 0 195 0 196
470 0 c259 0 470 3 470 8 0 4 -95 65 -211 136 -115 71 -212 132 -214 136 -3 6
165 284 184 303 7 7 75 -31 209 -117 110 -69 203 -126 206 -126 3 0 6 51 6
113 0 174 -33 258 -120 307 l-45 25 -342 3 -343 3 0 195 0 195 453 -3 c428 -4
456 -5 531 -26z m-4474 -1337 l0 -195 -200 0 -200 0 0 188 c0 104 3 192 7 195
3 4 93 7 200 7 l193 0 0 -195z"/>
</g>
</svg>
